<?xml version="1.0" encoding="UTF-8" standalone="no"?>
<svg
   version="1.0"
   width="3638.1001pt"
   height="2285.4185pt"
   viewBox="0 0 3638.1001 2285.4185"
   preserveAspectRatio="xMidYMid meet"
   id="svg96"
   sodipodi:docname="ensta.svg"
   inkscape:version="1.1.2 (0a00cf5339, 2022-02-04)"
   xmlns:inkscape="http://www.inkscape.org/namespaces/inkscape"
   xmlns:sodipodi="http://sodipodi.sourceforge.net/DTD/sodipodi-0.dtd"
   xmlns="http://www.w3.org/2000/svg"
   xmlns:svg="http://www.w3.org/2000/svg">
  <defs
     id="defs100" />
  <sodipodi:namedview
     id="namedview98"
     pagecolor="#ffffff"
     bordercolor="#666666"
     borderopacity="1.0"
     inkscape:pageshadow="2"
     inkscape:pageopacity="0.0"
     inkscape:pagecheckerboard="0"
     inkscape:document-units="pt"
     showgrid="false"
     inkscape:zoom="0.076071587"
     inkscape:cx="2313.6102"
     inkscape:cy="1958.6814"
     inkscape:window-width="1536"
     inkscape:window-height="828"
     inkscape:window-x="1920"
     inkscape:window-y="478"
     inkscape:window-maximized="1"
     inkscape:current-layer="g94"
     fit-margin-top="0"
     fit-margin-left="0"
     fit-margin-right="0"
     fit-margin-bottom="0" />
  <g
     transform="matrix(0.1,0,0,-0.1,-871,3157)"
     fill="#000000"
     stroke="none"
     id="g94">
    <path
       d="m 8717,31563 c -4,-3 -7,-1965 -7,-4360 v -4353 h 3210 3210 v 1090 1090 h -2050 -2050 v 600 600 h 1660 1660 v 1050 1050 h -1660 -1660 v 530 530 h 2050 2050 v 1090 1090 h -3203 c -1762,0 -3207,-3 -3210,-7 z"
       id="path2"
       style="fill:#3746ff;fill-opacity:1" />
    <path
       d="m 15910,27210 v -4360 h 1155 1155 v 3156 c 0,2909 1,3155 16,3152 12,-2 330,-863 1168,-3155 l 1151,-3153 h 1753 1752 v 4360 4360 h -1155 -1155 v -3051 c 0,-2836 -1,-3050 -17,-3047 -12,2 -279,763 -1071,3051 l -1056,3047 h -1848 -1848 z"
       id="path4"
       style="fill:#3746ff;fill-opacity:1" />
    <path
       d="m 27049,31559 c -257,-15 -545,-73 -765,-154 -234,-86 -499,-237 -699,-398 -111,-89 -305,-292 -396,-412 -274,-365 -445,-785 -516,-1270 -24,-167 -24,-552 0,-720 123,-840 592,-1506 1327,-1880 242,-123 173,-100 1815,-605 682,-210 1259,-393 1283,-406 62,-37 111,-89 142,-156 87,-184 12,-401 -168,-490 l -67,-33 -2082,-3 -2083,-2 v -1090 -1091 l 2263,4 c 2079,3 2272,5 2382,20 863,125 1532,600 1899,1351 371,755 375,1633 11,2357 -118,236 -243,408 -440,604 -253,254 -523,430 -865,564 -69,27 -762,246 -1540,485 -778,240 -1435,445 -1460,457 -102,48 -167,127 -196,238 -44,173 52,367 214,433 l 57,23 1718,3 1717,2 v 1090 1090 l -1712,-1 c -942,-1 -1770,-5 -1839,-10 z"
       id="path6"
       style="fill:#3746ff;fill-opacity:1" />
    <path
       d="m 31300,30480 v -1090 h 1210 1210 v -3270 -3270 h 1160 1160 v 3270 3270 h 1210 1210 v 1090 1090 h -3580 -3580 z"
       id="path8"
       style="fill:#3746ff;fill-opacity:1" />
    <path
       d="m 39167,31564 c -4,-4 -7,-495 -7,-1091 v -1083 l 1156,-2 1157,-3 -1214,-1034 c -1390,-1185 -1343,-1144 -1461,-1275 -335,-373 -535,-784 -619,-1277 -31,-181 -34,-568 -5,-754 88,-574 343,-1082 743,-1477 385,-382 819,-596 1393,-690 l 135,-22 2318,-3 2317,-4 v 1091 1090 l -2242,2 -2243,3 -57,27 c -79,37 -142,98 -181,177 -29,59 -32,74 -32,156 0,82 3,97 33,157 32,65 70,101 1265,1199 l 1232,1132 3,-1097 2,-1096 h 1110 1110 v 1910 c 0,1300 -3,1942 -11,2008 -72,646 -425,1225 -974,1593 -194,130 -498,260 -727,310 -255,56 -131,53 -2243,56 -1073,2 -1954,1 -1958,-3 z"
       id="path10"
       style="fill:#3746ff;fill-opacity:1" />
    <path
       d="m 8710,19915 v -55 h 18191 18190 l -3,53 -3,52 -18187,3 -18188,2 z"
       id="path12" />
    <path
       d="m 16587,17393 c -13,-21 -45,-77 -71,-125 -26,-48 -51,-90 -56,-93 -5,-3 -48,49 -95,115 l -87,121 -57,-7 c -31,-3 -57,-7 -58,-8 -1,-1 53,-77 121,-169 l 124,-168 7,-115 7,-115 52,3 51,3 -3,120 -3,120 100,173 c 56,96 101,176 101,178 0,2 -25,4 -55,4 -52,0 -56,-2 -78,-37 z"
       id="path14" />
    <path
       d="m 16967,17413 c -4,-3 -7,-25 -7,-49 v -42 l 85,-7 c 47,-4 87,-10 89,-14 2,-3 -9,-112 -24,-241 -15,-129 -26,-236 -25,-238 1,-1 25,-5 52,-9 l 50,-5 5,33 c 3,19 16,128 29,242 l 23,209 51,-6 c 27,-4 68,-9 91,-12 l 41,-6 7,48 c 3,26 5,48 3,50 -2,3 -430,54 -451,54 -7,0 -16,-3 -19,-7 z"
       id="path16" />
    <path
       d="m 15638,17297 c -29,-5 -48,-15 -48,-23 0,-15 118,-556 122,-560 4,-3 389,83 394,89 9,9 -8,79 -21,83 -6,3 -74,-9 -150,-26 -76,-17 -139,-29 -140,-28 -2,2 -26,109 -54,237 -28,129 -53,235 -54,236 -1,1 -23,-3 -49,-8 z"
       id="path18" />
    <path
       d="m 17776,17273 c -9,-34 -157,-518 -161,-529 -4,-14 403,-140 414,-128 9,10 33,76 29,79 -2,1 -74,24 -161,50 -117,36 -156,52 -153,62 3,8 13,39 22,71 9,31 17,58 18,59 1,1 59,-16 130,-37 70,-22 134,-40 140,-40 7,0 18,17 24,39 16,50 16,48 -15,56 -16,3 -78,22 -140,41 l -111,34 21,68 c 12,37 22,68 23,70 1,2 70,-18 154,-44 83,-25 155,-42 160,-38 8,10 32,76 28,79 -5,3 -405,125 -411,125 -3,0 -8,-8 -11,-17 z"
       id="path20" />
    <path
       d="m 14954,17070 c -136,-54 -219,-196 -194,-329 35,-185 200,-294 373,-247 191,52 284,241 207,420 -23,55 -90,124 -145,151 -59,28 -175,31 -241,5 z m 185,-100 c 174,-88 154,-334 -30,-380 -69,-17 -123,0 -180,59 -68,70 -84,161 -44,241 44,86 167,125 254,80 z"
       id="path22" />
    <path
       d="m 18553,16909 c -149,-58 -230,-242 -174,-391 43,-114 158,-192 281,-193 36,0 77,3 92,8 l 27,7 -16,45 -15,45 -53,-6 c -64,-8 -114,7 -162,49 -44,38 -63,82 -63,140 0,115 95,216 204,217 54,0 127,-42 157,-91 45,-74 41,-71 79,-58 49,17 54,23 41,62 -18,53 -73,110 -142,147 -82,44 -177,51 -256,19 z"
       id="path24" />
    <path
       d="m 14247,16660 c -21,-10 -83,-51 -138,-90 -99,-71 -100,-72 -85,-95 9,-13 85,-121 170,-239 l 154,-216 41,31 c 26,18 39,34 35,42 -4,7 -28,41 -53,76 l -45,64 29,21 c 123,89 162,137 172,215 10,75 -44,168 -114,197 -45,19 -121,17 -166,-6 z m 144,-109 c 23,-23 29,-38 29,-72 0,-38 -5,-48 -48,-88 -27,-26 -61,-53 -76,-61 -31,-16 -21,-25 -109,96 l -37,53 62,44 c 97,69 132,74 179,28 z"
       id="path26" />
    <path
       d="m 19117,16344 -187,-224 32,-30 c 18,-16 38,-30 45,-30 6,0 45,40 86,89 l 75,90 101,-85 c 55,-47 101,-88 101,-92 0,-4 -34,-48 -75,-97 l -74,-90 37,-32 c 20,-18 40,-31 44,-30 4,1 90,101 192,222 l 185,220 -37,32 c -20,18 -40,32 -43,33 -5,0 -109,-120 -145,-168 -9,-13 -29,0 -117,73 l -106,89 47,55 c 25,31 59,71 74,89 15,18 28,36 28,41 0,4 -17,21 -38,38 l -37,30 z"
       id="path28" />
    <path
       d="m 16390,16209 c -735,-80 -1396,-395 -1910,-909 -69,-69 -161,-170 -204,-223 -67,-83 -77,-100 -65,-111 8,-7 84,-55 169,-106 379,-228 1048,-650 1909,-1204 211,-135 385,-245 386,-244 2,2 99,156 217,343 287,454 532,834 821,1275 132,201 249,380 261,397 11,18 24,33 27,33 9,0 1252,-824 1322,-876 34,-26 106,-90 160,-143 l 98,-96 -35,77 c -81,179 -240,434 -386,618 -104,131 -363,390 -495,496 -434,345 -946,568 -1510,656 -149,23 -615,34 -765,17 z"
       id="path30" />
    <path
       d="m 19755,15759 c -121,-94 -221,-176 -222,-182 -2,-7 10,-27 26,-46 l 28,-34 158,122 c 87,67 159,120 160,119 2,-2 -26,-113 -60,-248 l -64,-245 25,-33 c 14,-18 30,-32 34,-30 5,2 110,81 234,177 l 225,174 -30,39 c -17,21 -34,38 -37,38 -4,0 -73,-52 -155,-115 -81,-63 -149,-115 -151,-115 -2,0 23,107 57,239 l 61,239 -24,36 c -14,20 -29,36 -35,36 -5,0 -109,-77 -230,-171 z"
       id="path32" />
    <path
       d="m 13223,15726 c -255,-83 -363,-381 -218,-602 139,-212 446,-239 619,-54 69,74 99,146 104,251 9,177 -74,312 -235,386 -70,32 -201,42 -270,19 z"
       id="path34" />
    <path
       d="m 20250,15065 c -135,-74 -249,-136 -255,-138 -10,-4 22,-84 37,-93 5,-3 123,57 262,133 l 254,138 -24,47 c -13,27 -25,48 -27,48 -1,-1 -112,-61 -247,-135 z"
       id="path36" />
    <path
       d="m 13984,14659 c -46,-73 -160,-310 -207,-429 -375,-957 -261,-2033 305,-2885 210,-317 495,-612 793,-823 l 59,-43 29,58 c 122,244 407,747 687,1213 168,280 695,1138 763,1240 l 16,26 -326,224 c -1006,691 -1493,1032 -1885,1317 -108,79 -199,143 -202,143 -3,0 -18,-19 -32,-41 z"
       id="path38" />
    <path
       d="m 20440,14683 c -208,-72 -272,-327 -124,-492 45,-50 45,-50 30,-80 -24,-45 -20,-55 28,-73 l 44,-16 15,36 15,37 71,-3 c 93,-5 156,17 221,75 69,62 92,110 98,203 3,61 0,86 -18,134 -57,151 -229,232 -380,179 z m 218,-125 c 78,-52 106,-171 59,-253 -34,-61 -95,-98 -167,-103 l -61,-4 26,57 c 14,32 25,61 25,65 0,11 -79,42 -90,35 -4,-3 -16,-28 -26,-55 -20,-54 -28,-57 -57,-19 -29,40 -39,102 -25,156 14,56 75,123 128,140 58,20 142,11 188,-19 z"
       id="path40" />
    <path
       d="m 17894,14293 c -141,-208 -376,-548 -522,-757 -145,-208 -265,-384 -266,-392 -1,-11 674,-455 854,-560 85,-50 224,-98 332,-115 97,-15 273,-5 373,21 367,97 638,410 687,792 35,277 -75,578 -284,774 -50,48 -887,614 -907,614 -5,0 -125,-170 -267,-377 z"
       id="path42" />
    <path
       d="m 40250,14459 c -343,-29 -621,-201 -746,-464 -60,-125 -77,-217 -72,-384 6,-171 31,-267 98,-370 123,-190 297,-284 758,-410 383,-105 499,-158 549,-255 22,-41 22,-151 1,-191 -80,-150 -340,-201 -643,-125 -111,28 -320,134 -434,220 -51,39 -95,69 -96,68 -1,-2 -80,-97 -175,-212 l -174,-208 25,-20 c 255,-205 478,-313 785,-378 138,-29 412,-38 549,-17 397,61 658,272 747,602 28,106 30,316 5,419 -51,205 -183,354 -412,465 -121,60 -253,105 -482,165 -384,102 -500,171 -511,300 -7,81 5,122 45,167 159,176 547,131 916,-107 37,-24 71,-44 75,-44 4,0 74,98 156,217 116,169 147,220 139,232 -16,24 -159,118 -257,168 -244,123 -567,185 -846,162 z"
       id="path44" />
    <path
       d="m 32171,14432 c -14,-26 -1132,-2654 -1138,-2675 -5,-16 12,-17 297,-15 l 303,3 121,298 120,297 h 567 567 l 90,-222 c 50,-123 105,-258 123,-300 l 31,-78 h 309 c 170,0 309,3 308,8 0,4 -258,612 -573,1352 l -573,1345 -271,3 c -252,2 -272,1 -281,-16 z m 453,-1151 c 91,-222 165,-406 163,-408 -2,-2 -160,-2 -350,-1 l -345,3 157,385 c 208,507 191,469 201,445 5,-11 83,-202 174,-424 z"
       id="path46" />
    <path
       d="m 22797,14423 c -4,-3 -7,-609 -7,-1345 v -1338 h 300 300 l -2,1343 -3,1342 -291,3 c -160,1 -293,-1 -297,-5 z"
       id="path48" />
    <path
       d="m 24527,14424 c -4,-4 -7,-610 -7,-1346 v -1338 h 300 300 v 399 399 l 318,5 c 342,5 417,15 585,71 250,84 451,257 548,472 66,145 94,329 78,503 -35,372 -249,647 -598,769 -184,64 -192,64 -886,69 -347,2 -634,1 -638,-3 z m 1183,-548 c 144,-26 252,-103 307,-221 25,-54 28,-70 28,-170 0,-100 -3,-116 -28,-170 -57,-122 -182,-211 -327,-234 -36,-6 -179,-11 -317,-11 h -253 v 410 410 h 258 c 170,-1 283,-5 332,-14 z"
       id="path50" />
    <path
       d="m 28577,14424 c -4,-4 -7,-610 -7,-1346 v -1338 h 300 300 v 399 399 l 318,5 c 265,4 333,8 412,25 246,52 414,137 556,284 124,128 193,260 229,437 26,128 17,365 -19,484 -87,289 -281,489 -572,587 -180,62 -190,62 -879,67 -347,2 -634,1 -638,-3 z m 1228,-556 c 126,-38 213,-108 262,-213 25,-54 28,-71 28,-170 0,-104 -2,-114 -32,-176 -59,-120 -181,-206 -323,-228 -36,-6 -179,-11 -317,-11 h -253 v 411 411 l 293,-5 c 219,-3 304,-8 342,-19 z"
       id="path52" />
    <path
       d="m 34617,14423 c -4,-3 -7,-609 -7,-1345 v -1338 h 300 300 v 430 430 h 228 227 l 288,-430 288,-430 h 344 c 190,0 345,2 345,5 0,3 -145,217 -323,477 l -323,472 97,48 c 278,136 434,363 470,683 22,196 -18,414 -106,570 -47,85 -158,202 -245,260 -134,89 -309,145 -511,164 -124,12 -1361,16 -1372,4 z m 1314,-547 c 135,-24 236,-93 286,-194 26,-53 28,-66 28,-177 0,-111 -2,-124 -27,-170 -51,-95 -119,-151 -227,-187 -62,-21 -88,-22 -423,-26 l -358,-4 v 386 386 h 323 c 224,-1 345,-5 398,-14 z"
       id="path54" />
    <path
       d="m 37860,13085 v -1345 h 295 295 v 1345 1345 h -295 -295 z"
       id="path56" />
    <path
       d="m 12497,14178 c -32,-123 -58,-226 -57,-230 0,-9 78,-30 88,-24 5,3 17,41 27,86 10,44 23,80 29,80 6,0 113,-27 238,-59 l 227,-59 11,50 c 7,27 11,51 9,53 -2,2 -103,29 -224,60 -121,31 -225,58 -231,60 -8,2 -7,22 6,67 34,125 35,114 -15,127 -24,6 -45,11 -47,11 -2,0 -30,-100 -61,-222 z"
       id="path58" />
    <path
       d="m 20779,13810 c -178,-22 -215,-32 -266,-69 -59,-43 -78,-89 -78,-191 0,-103 26,-166 87,-210 68,-49 116,-53 336,-28 l 194,22 -7,50 c -3,28 -7,52 -9,53 -1,2 -91,-7 -199,-19 -186,-21 -197,-22 -231,-5 -20,9 -45,31 -56,49 -25,41 -26,119 -4,158 29,49 64,60 242,81 226,27 212,23 212,63 0,75 7,74 -221,46 z"
       id="path60" />
    <path
       d="m 12379,13570 c -1,-22 -2,-46 -3,-52 -1,-10 48,-16 185,-25 118,-7 200,-17 223,-27 99,-41 102,-201 4,-252 -29,-15 -53,-16 -208,-10 -96,4 -186,8 -200,9 -23,2 -25,-2 -28,-49 l -3,-51 63,-6 c 35,-4 126,-9 204,-13 118,-6 149,-4 192,10 168,56 207,330 62,435 -52,38 -103,48 -288,61 -220,14 -202,17 -203,-30 z"
       id="path62" />
    <path
       d="m 20466,12939 c -10,-90 -26,-308 -26,-349 0,-38 0,-38 45,-42 25,-2 45,-1 45,2 1,3 7,76 14,163 7,86 15,158 17,160 2,1 37,1 78,-1 l 73,-4 -6,-41 c -3,-23 -8,-90 -12,-149 l -7,-108 h 46 c 43,0 45,1 50,33 3,17 9,82 13,143 l 6,111 72,-5 c 39,-2 72,-5 73,-7 2,-1 -2,-72 -9,-158 -6,-86 -9,-159 -6,-163 4,-3 24,-8 46,-11 l 40,-5 6,53 c 10,89 26,308 26,348 v 37 l -237,18 c -131,9 -261,20 -290,23 l -51,6 z"
       id="path64" />
    <path
       d="m 19815,12863 c -123,-329 -407,-632 -735,-787 -204,-96 -334,-126 -577,-133 -207,-6 -320,8 -483,59 -176,55 -290,121 -753,439 -241,165 -443,299 -447,297 -5,-2 -168,-226 -363,-498 -659,-924 -1012,-1395 -1315,-1754 l -75,-88 24,-19 c 37,-28 282,-152 389,-197 283,-119 592,-198 910,-233 145,-15 492,-15 630,0 433,50 830,173 1184,366 870,478 1468,1333 1610,2307 18,119 32,288 24,288 -3,0 -13,-21 -23,-47 z"
       id="path66" />
    <path
       d="m 12383,12783 c -13,-2 -23,-7 -23,-10 0,-14 51,-421 56,-440 5,-24 33,-30 80,-17 19,5 20,8 9,95 l -11,89 30,5 c 17,3 123,17 235,30 112,14 207,28 211,30 3,2 4,25 1,52 -7,57 25,54 -275,18 -115,-14 -211,-24 -213,-22 -2,2 -8,43 -15,91 -12,94 -11,93 -85,79 z"
       id="path68" />
    <path
       d="m 12771,12066 c -146,-40 -266,-77 -268,-83 -4,-12 15,-93 22,-93 7,0 559,150 561,153 6,8 -29,97 -39,96 -7,0 -131,-33 -276,-73 z"
       id="path70" />
    <path
       d="m 20225,11628 c -56,-40 -88,-73 -126,-131 -108,-165 -94,-319 36,-383 95,-46 159,-19 272,116 82,98 133,108 87,17 -28,-54 -64,-95 -108,-125 l -43,-28 33,-74 c 18,-41 36,-76 41,-77 16,-6 102,57 143,105 50,56 107,170 119,238 16,86 -14,167 -78,209 -103,68 -187,35 -312,-121 -51,-64 -89,-84 -89,-46 0,30 60,112 102,139 27,18 37,31 33,42 -7,19 -75,141 -78,141 -1,0 -15,-10 -32,-22 z"
       id="path72" />
    <path
       d="m 13007,11544 c -121,-52 -222,-92 -226,-89 -4,2 -20,35 -36,72 -15,37 -32,72 -36,77 -8,8 -89,-20 -89,-31 0,-5 180,-426 184,-430 5,-5 86,30 86,38 0,4 -15,43 -34,87 l -34,80 216,92 c 120,51 220,95 224,99 4,3 -3,27 -15,53 l -22,46 z"
       id="path74" />
    <path
       d="m 13343,11119 c -46,-13 -99,-70 -107,-114 -8,-42 -4,-69 31,-182 28,-93 25,-128 -12,-145 -60,-27 -124,42 -134,146 l -6,61 -46,3 c -56,4 -62,-8 -47,-89 31,-173 174,-274 292,-206 87,49 102,124 52,266 -31,88 -33,122 -8,144 68,62 162,-39 162,-173 0,-59 1,-60 28,-60 15,0 38,-3 51,-7 l 24,-6 -5,84 c -3,71 -9,94 -38,147 -38,71 -83,114 -139,131 -44,13 -54,13 -98,0 z"
       id="path76" />
    <path
       d="m 19755,10898 c -21,-29 -49,-67 -62,-84 l -23,-31 217,-159 c 119,-87 231,-169 249,-181 l 31,-22 61,84 61,83 -237,173 c -130,95 -242,176 -248,181 -8,6 -25,-9 -49,-44 z"
       id="path78" />
    <path
       d="m 13642,10397 -202,-202 37,-38 38,-37 137,137 c 76,76 138,131 138,123 0,-9 -14,-119 -30,-245 l -31,-229 36,-35 35,-36 205,205 205,205 -34,34 -34,34 -143,-136 c -79,-75 -144,-136 -145,-134 -2,1 10,101 26,222 36,272 37,285 7,313 -13,12 -28,22 -33,22 -5,0 -100,-91 -212,-203 z"
       id="path80" />
    <path
       d="m 19384,10426 c -42,-20 -266,-212 -310,-267 -12,-14 14,-43 338,-386 l 68,-73 75,72 76,71 -56,57 c -30,30 -55,60 -55,66 0,29 23,30 121,7 l 100,-24 57,49 c 89,78 118,111 101,116 -8,3 -61,15 -119,27 -58,12 -106,23 -107,24 -1,1 2,18 8,39 22,80 -29,184 -112,226 -52,27 -122,26 -185,-4 z m 100,-192 c 27,-26 19,-61 -25,-109 -23,-25 -45,-45 -48,-45 -4,0 -23,20 -44,44 l -37,45 51,40 c 56,44 79,50 103,25 z"
       id="path82" />
    <path
       d="m 14443,9988 c -21,-28 -97,-135 -170,-237 l -132,-186 22,-17 c 30,-23 66,-42 70,-37 27,31 327,462 327,468 0,5 -18,20 -40,35 l -40,26 z"
       id="path84" />
    <path
       d="m 18553,9823 c -76,-43 -83,-49 -82,-77 1,-71 75,-630 82,-629 5,0 49,22 98,49 l 89,49 -6,45 -6,45 91,52 91,52 29,-25 c 16,-13 34,-24 41,-24 12,0 190,98 190,105 0,6 -520,405 -527,405 -5,0 -45,-21 -90,-47 z m 210,-286 29,-24 -44,-26 c -50,-29 -50,-28 -63,62 l -7,54 28,-21 c 16,-12 42,-32 57,-45 z"
       id="path86" />
    <path
       d="m 15321,9259 c -45,-160 -81,-292 -79,-293 2,-2 64,-20 138,-42 228,-65 351,-53 443,44 76,82 107,209 75,314 -15,52 -83,127 -145,160 -43,24 -307,108 -338,108 -7,0 -45,-117 -94,-291 z m 294,47 c 57,-24 85,-59 85,-107 0,-51 -23,-102 -55,-119 -23,-12 -138,-11 -151,2 -11,11 59,238 73,238 8,0 29,-7 48,-14 z"
       id="path88" />
    <path
       d="m 17875,9515 c -5,-2 -75,-22 -155,-46 -80,-23 -149,-45 -153,-49 -7,-6 157,-566 169,-579 4,-5 170,40 186,50 7,4 2,33 -12,83 -13,42 -21,78 -19,79 2,2 29,11 59,20 77,23 144,68 177,118 24,36 28,53 28,108 -1,135 -87,222 -217,220 -29,0 -57,-2 -63,-4 z m 71,-200 c 31,-47 -2,-97 -73,-111 -29,-6 -31,-4 -47,42 -9,26 -16,54 -16,61 0,18 35,32 82,32 29,1 41,-4 54,-24 z"
       id="path90" />
    <path
       d="m 16266,9309 c -9,-74 -29,-560 -23,-566 8,-7 509,-33 520,-26 4,2 7,39 7,83 0,91 1,90 -99,90 -38,0 -102,3 -144,6 -77,7 -77,7 -77,36 v 29 l 150,-7 150,-7 v 24 c 0,13 3,47 6,75 l 7,52 -152,7 -151,8 v 28 29 l 148,-6 c 81,-3 152,-7 158,-9 15,-4 24,41 24,115 v 57 l -147,7 c -82,3 -198,9 -260,13 l -111,6 z"
       id="path92" />
  </g>
</svg>
