<?xml version="1.0" encoding="UTF-8" standalone="no"?>
<svg
   id="svg8"
   version="1.1"
   viewBox="0 0 82.382218 18.626137"
   height="18.626137mm"
   width="82.382217mm"
   sodipodi:docname="onera.svg"
   inkscape:version="1.1.2 (0a00cf5339, 2022-02-04)"
   xmlns:inkscape="http://www.inkscape.org/namespaces/inkscape"
   xmlns:sodipodi="http://sodipodi.sourceforge.net/DTD/sodipodi-0.dtd"
   xmlns="http://www.w3.org/2000/svg"
   xmlns:svg="http://www.w3.org/2000/svg"
   xmlns:rdf="http://www.w3.org/1999/02/22-rdf-syntax-ns#"
   xmlns:cc="http://creativecommons.org/ns#"
   xmlns:dc="http://purl.org/dc/elements/1.1/">
  <sodipodi:namedview
     id="namedview97"
     pagecolor="#ffffff"
     bordercolor="#666666"
     borderopacity="1.0"
     inkscape:pageshadow="2"
     inkscape:pageopacity="0.0"
     inkscape:pagecheckerboard="0"
     inkscape:document-units="mm"
     showgrid="false"
     fit-margin-top="0"
     fit-margin-left="0"
     fit-margin-right="0"
     fit-margin-bottom="0"
     inkscape:zoom="2.2936697"
     inkscape:cx="120.76717"
     inkscape:cy="34.00664"
     inkscape:window-width="1536"
     inkscape:window-height="828"
     inkscape:window-x="1920"
     inkscape:window-y="478"
     inkscape:window-maximized="1"
     inkscape:current-layer="svg8" />
  <defs
     id="defs2">
    <clipPath
       clipPathUnits="userSpaceOnUse"
       id="clipPath4534">
      <path
         d="M -609.449,856.0627 H 607.4659 V 728.5038 H -609.449"
         id="path4532" />
    </clipPath>
    <clipPath
       clipPathUnits="userSpaceOnUse"
       id="clipPath4558">
      <path
         d="m 0,76.5358 v 79.37 h 595.275 v -79.37"
         id="path4556" />
    </clipPath>
    <clipPath
       clipPathUnits="userSpaceOnUse"
       id="clipPath4564">
      <path
         d="M 148.8186,5.9852 H 446.4561 V 216.4577 H 148.8186"
         id="path4562" />
    </clipPath>
    <clipPath
       clipPathUnits="userSpaceOnUse"
       id="clipPath4628">
      <path
         d="m 0,144.9808 v 115.807 h 595.275 v -115.807"
         id="path4626" />
    </clipPath>
    <clipPath
       clipPathUnits="userSpaceOnUse"
       id="clipPath4634">
      <path
         d="m 270.7957,176.0428 h 53.6882 v 53.6881 h -53.6882"
         id="path4632" />
    </clipPath>
    <clipPath
       clipPathUnits="userSpaceOnUse"
       id="clipPath4648">
      <path
         d="m 279.2339,192.4605 h 29.4332 v 28.5526 h -29.4332"
         id="path4646" />
    </clipPath>
    <clipPath
       clipPathUnits="userSpaceOnUse"
       id="clipPath4742">
      <path
         d="m 279.2339,192.4605 h 29.4333 v 28.5526 h -29.4333 z"
         id="path4740" />
    </clipPath>
    <clipPath
       clipPathUnits="userSpaceOnUse"
       id="clipPath4750">
      <path
         d="m 279.2339,192.4605 h 29.4333 v 28.5526 h -29.4333 z"
         id="path4748" />
    </clipPath>
    <clipPath
       clipPathUnits="userSpaceOnUse"
       id="clipPath4758">
      <path
         d="m 279.2339,192.4605 h 29.4333 v 28.5526 h -29.4333 z"
         id="path4756" />
    </clipPath>
    <clipPath
       clipPathUnits="userSpaceOnUse"
       id="clipPath4766">
      <path
         d="m 279.2339,192.4605 h 29.4333 v 28.5526 h -29.4333 z"
         id="path4764" />
    </clipPath>
    <clipPath
       clipPathUnits="userSpaceOnUse"
       id="clipPath4774">
      <path
         d="m 279.2339,192.4605 h 29.4333 v 28.5526 h -29.4333 z"
         id="path4772" />
    </clipPath>
    <clipPath
       clipPathUnits="userSpaceOnUse"
       id="clipPath4782">
      <path
         d="m 279.2339,192.4605 h 29.4333 v 28.5526 h -29.4333 z"
         id="path4780" />
    </clipPath>
    <clipPath
       clipPathUnits="userSpaceOnUse"
       id="clipPath4790">
      <path
         d="m 279.2339,192.4605 h 29.4333 v 28.5526 h -29.4333 z"
         id="path4788" />
    </clipPath>
    <clipPath
       clipPathUnits="userSpaceOnUse"
       id="clipPath4800">
      <path
         d="m 279.2339,192.4605 h 29.4333 v 28.5526 h -29.4333 z"
         id="path4798" />
    </clipPath>
    <clipPath
       clipPathUnits="userSpaceOnUse"
       id="clipPath4810">
      <path
         d="m 279.2339,192.4605 h 29.4333 v 28.5526 h -29.4333 z"
         id="path4808" />
    </clipPath>
    <clipPath
       clipPathUnits="userSpaceOnUse"
       id="clipPath4818">
      <path
         d="m 279.2339,192.4605 h 29.4333 v 28.5526 h -29.4333 z"
         id="path4816" />
    </clipPath>
    <clipPath
       clipPathUnits="userSpaceOnUse"
       id="clipPath4828">
      <path
         d="m 279.2339,192.4605 h 29.4333 v 28.5526 h -29.4333 z"
         id="path4826" />
    </clipPath>
    <clipPath
       clipPathUnits="userSpaceOnUse"
       id="clipPath4838">
      <path
         d="m 279.2339,192.4605 h 29.4333 v 28.5526 h -29.4333 z"
         id="path4836" />
    </clipPath>
    <clipPath
       clipPathUnits="userSpaceOnUse"
       id="clipPath4848">
      <path
         d="m 279.2339,192.4605 h 29.4333 v 28.5526 h -29.4333 z"
         id="path4846" />
    </clipPath>
    <clipPath
       clipPathUnits="userSpaceOnUse"
       id="clipPath4856">
      <path
         d="m 279.2339,192.4605 h 29.4333 v 28.5526 h -29.4333 z"
         id="path4854" />
    </clipPath>
    <clipPath
       clipPathUnits="userSpaceOnUse"
       id="clipPath4864">
      <path
         d="m 279.2339,192.4605 h 29.4333 v 28.5526 h -29.4333 z"
         id="path4862" />
    </clipPath>
    <clipPath
       clipPathUnits="userSpaceOnUse"
       id="clipPath4874">
      <path
         d="m 279.2339,192.4605 h 29.4333 v 28.5526 h -29.4333 z"
         id="path4872" />
    </clipPath>
    <clipPath
       clipPathUnits="userSpaceOnUse"
       id="clipPath4884">
      <path
         d="m 279.2339,192.4605 h 29.4333 v 28.5526 h -29.4333 z"
         id="path4882" />
    </clipPath>
    <clipPath
       clipPathUnits="userSpaceOnUse"
       id="clipPath4892">
      <path
         d="m 279.2339,192.4605 h 29.4333 v 28.5526 h -29.4333 z"
         id="path4890" />
    </clipPath>
    <clipPath
       clipPathUnits="userSpaceOnUse"
       id="clipPath4900">
      <path
         d="m 279.2339,192.4605 h 29.4333 v 28.5526 h -29.4333 z"
         id="path4898" />
    </clipPath>
    <clipPath
       clipPathUnits="userSpaceOnUse"
       id="clipPath4908">
      <path
         d="m 279.2339,192.4605 h 29.4333 v 28.5526 h -29.4333 z"
         id="path4906" />
    </clipPath>
    <clipPath
       clipPathUnits="userSpaceOnUse"
       id="clipPath4916">
      <path
         d="m 279.2339,192.4605 h 29.4333 v 28.5526 h -29.4333 z"
         id="path4914" />
    </clipPath>
    <clipPath
       clipPathUnits="userSpaceOnUse"
       id="clipPath4924">
      <path
         d="m 279.2339,192.4605 h 29.4333 v 28.5526 h -29.4333 z"
         id="path4922" />
    </clipPath>
    <clipPath
       clipPathUnits="userSpaceOnUse"
       id="clipPath4932">
      <path
         d="m 279.2339,192.4605 h 29.4333 v 28.5526 h -29.4333 z"
         id="path4930" />
    </clipPath>
    <clipPath
       clipPathUnits="userSpaceOnUse"
       id="clipPath4940">
      <path
         d="m 279.2339,192.4605 h 29.4333 v 28.5526 h -29.4333 z"
         id="path4938" />
    </clipPath>
  </defs>
  <metadata
     id="metadata5">
    <rdf:RDF>
      <cc:Work
         rdf:about="">
        <dc:format>image/svg+xml</dc:format>
        <dc:type
           rdf:resource="http://purl.org/dc/dcmitype/StillImage" />
      </cc:Work>
    </rdf:RDF>
  </metadata>
  <g
     transform="translate(73.331639,-264.02986)"
     id="layer1">
    <g
       transform="matrix(0.35277777,0,0,-0.35277777,-137.10183,312.17376)"
       id="g4552">
      <g
         clip-path="url(#clipPath4558)"
         id="g4554">
        <g
           clip-path="url(#clipPath4564)"
           id="g4560">
          <path
             id="path4566"
             style="fill:#000000;fill-opacity:1;fill-rule:nonzero;stroke:none"
             d="m 243.8911,120.2342 c -5.7657,0 -10.2825,3.1402 -10.2825,7.149 0,4.0087 4.5168,7.1487 10.2825,7.1487 5.7658,0 10.2825,-3.14 10.2825,-7.1487 0,-4.0088 -4.5167,-7.149 -10.2825,-7.149 m 0,16.1435 c -8.2002,0 -13.1005,-4.5733 -13.1005,-8.9945 0,-4.4213 4.9003,-8.9945 13.1005,-8.9945 8.2003,0 13.1005,4.5732 13.1005,8.9945 0,4.4212 -4.9002,8.9945 -13.1005,8.9945" />
          <path
             id="path4568"
             style="fill:#000000;fill-opacity:1;fill-rule:nonzero;stroke:none"
             d="m 284.1664,122.8252 c -0.3925,0.299 -17.774,13.5387 -17.774,13.5387 v -17.559 l 2.6829,-0.002 v 12.951 c 0.3923,-0.2978 17.7738,-13.492 17.7738,-13.492 v 17.7 l -2.6827,-0.006" />
          <path
             id="path4570"
             style="fill:#000000;fill-opacity:1;fill-rule:nonzero;stroke:none"
             d="m 300.0916,120.5627 v 6.0385 h 8.0083 v 1.7515 h -8.0083 v 5.8507 h 9.022 l 5e-4,1.7518 h -11.7055 v -17.1443 h 12.89 l -0.003,1.7518" />
          <path
             id="path4572"
             style="fill:#000000;fill-opacity:1;fill-rule:nonzero;stroke:none"
             d="m 329.7469,130.7149 c 0,-1.7932 -2.0545,-3.7232 -6.5655,-3.7232 l -0.6041,0.0135 c 0,0 -0.1639,0.004 -0.2847,0.007 v 7.1912 h 1.0577 c 4.1248,0 6.3966,-1.2387 6.3966,-3.4885 m 2.6827,-0.258 c 0,3.6485 -3.2595,5.4983 -9.6877,5.4983 h -3.1323 v -17.1495 l 2.683,-0.0178 v 6.7845 c 0.2687,-0.2327 7.8205,-6.775 7.8205,-6.775 h 3.7567 c 0,0 -7.717,6.289 -8.15,6.642 3.8445,0.424 6.7098,2.5453 6.7098,5.0175" />
          <path
             id="path4574"
             style="fill:#000000;fill-opacity:1;fill-rule:nonzero;stroke:none"
             d="m 355.7269,127.0264 h -7.531 c 0.2249,0.3513 3.4847,5.433 3.6729,5.7265 0.1953,-0.2892 3.6186,-5.3712 3.8581,-5.7265 m -3.7938,9.4445 -12.213,-17.659 h 3.0518 c 0,0 4.1357,6.259 4.2084,6.3693 h 10.0225 c 0.0733,-0.1058 4.4248,-6.3765 4.4248,-6.3765 h 2.9628" />
          <path
             id="path4576"
             style="fill:#2f63b7;fill-opacity:1;fill-rule:nonzero;stroke:none"
             d="m 368.1993,111.9827 h -141.431 l -1.4144,-2.0215 h 144.2687" />
          <path
             id="path4578"
             style="fill:#2f63b7;fill-opacity:1;fill-rule:nonzero;stroke:none"
             d="m 414.1701,92.0122 c -7.5682,1.948 -14.8965,3.6415 -22.403,5.1777 -30.8087,6.3048 -62.5183,9.5015 -94.2475,9.5015 -31.7295,0 -63.4387,-3.1967 -94.2472,-9.5015 -7.4023,-1.5147 -14.9335,-3.2535 -22.385,-5.1682 l -0.1215,-0.0313 0.5147,-1.967 0.1208,0.031 c 7.621,1.9663 14.6995,3.6045 22.2762,5.155 30.6758,6.277 62.2488,9.46 93.842,9.46 31.593,0 63.166,-3.183 93.842,-9.46 7.8255,-1.6015 14.917,-3.238 22.3163,-5.1505 l 0.122,-0.0312 0.4904,1.9535" />
          <path
             id="path4580"
             style="fill:#404040;fill-opacity:1;fill-rule:nonzero;stroke:none"
             d="m 232.9254,83.9464 h -0.6773 v 5.4475 h -1.4667 v 0.629 h 3.6265 v -0.629 h -1.4825" />
          <path
             id="path4582"
             style="fill:#404040;fill-opacity:1;fill-rule:nonzero;stroke:none"
             d="m 240.0411,87.5567 v 2.466 h 0.6773 v -6.0763 h -0.6773 v 2.9815 h -3.1107 v -2.9815 h -0.6768 v 6.0763 h 0.6768 v -2.466" />
          <path
             id="path4584"
             style="fill:#404040;fill-opacity:1;fill-rule:nonzero;stroke:none"
             d="m 243.0954,90.0227 h 3.151 v -0.629 h -2.474 v -1.805 h 2.4015 v -0.6283 h -2.4015 v -2.3857 h 2.474 v -0.6285 h -3.151" />
          <path
             id="path4586"
             style="fill:#404040;fill-opacity:1;fill-rule:nonzero;stroke:none"
             d="m 252.9056,89.3939 v -1.8052 h 2.432 v -0.628 h -2.432 v -3.0143 h -0.6767 v 6.0765 h 3.638 v -0.629" />
          <path
             id="path4588"
             style="fill:#404040;fill-opacity:1;fill-rule:nonzero;stroke:none"
             d="m 258.1186,87.2097 h 0.2097 c 0.7655,0 1.5393,0.1452 1.5393,1.0885 0,0.999 -0.7333,1.0955 -1.5475,1.0955 h -0.2015 z m 0,-3.2635 h -0.6768 v 6.0765 h 0.8783 c 1.1525,0 2.2242,-0.3068 2.2242,-1.6765 10e-5,-0.9348 -0.5882,-1.5958 -1.5229,-1.676 l 1.934,-2.724 h -0.8303 l -1.8373,2.6675 h -0.1692" />
          <path
             id="path4590"
             style="fill:#404040;fill-opacity:1;fill-rule:nonzero;stroke:none"
             d="m 262.9299,90.0227 h 3.151 v -0.629 h -2.4743 v -1.805 h 2.4018 v -0.6283 h -2.4018 v -2.3857 h 2.4743 v -0.6285 h -3.151" />
          <path
             id="path4592"
             style="fill:#404040;fill-opacity:1;fill-rule:nonzero;stroke:none"
             d="m 268.1531,90.2804 4.7385,-4.964 v 4.7065 h 0.677 v -6.3505 l -4.7385,4.956 v -4.682 h -0.677" />
          <path
             id="path4594"
             style="fill:#404040;fill-opacity:1;fill-rule:nonzero;stroke:none"
             d="m 280.5879,88.6927 c -0.4838,0.4997 -1.1525,0.806 -1.8538,0.806 -1.354,0 -2.4497,-1.1763 -2.4497,-2.514 0,-1.338 1.1042,-2.5145 2.4662,-2.5145 0.6848,0 1.3535,0.322 1.8373,0.8057 v -0.8382 c -0.5238,-0.3785 -1.1685,-0.5963 -1.8133,-0.5963 -1.7165,0 -3.1672,1.3943 -3.1672,3.119 0,1.7405 1.4265,3.1668 3.1672,3.1668 0.677,0 1.2733,-0.1935 1.8133,-0.5963" />
          <path
             id="path4596"
             style="fill:#404040;fill-opacity:1;fill-rule:nonzero;stroke:none"
             d="m 286.6721,87.5567 v 2.466 h 0.6773 v -6.0763 h -0.6773 v 2.9815 h -3.1105 v -2.9815 h -0.6767 v 6.0763 h 0.6767 v -2.466" />
          <path
             id="path4598"
             style="fill:#404040;fill-opacity:1;fill-rule:nonzero;stroke:none"
             d="m 294.6409,88.7332 -1.0396,-2.4338 h 2.0553 z m -1.3133,-3.0625 -0.7335,-1.7243 h -0.7412 l 2.8042,6.3663 2.7322,-6.3663 h -0.7495 l -0.7172,1.7243" />
          <path
             id="path4600"
             style="fill:#404040;fill-opacity:1;fill-rule:nonzero;stroke:none"
             d="m 299.1699,90.0227 h 3.151 v -0.629 h -2.4743 v -1.805 h 2.4018 v -0.6283 h -2.4018 v -2.3857 h 2.4743 v -0.6285 h -3.151" />
          <path
             id="path4602"
             style="fill:#404040;fill-opacity:1;fill-rule:nonzero;stroke:none"
             d="m 305.5114,87.2097 h 0.2095 c 0.7655,0 1.5394,0.1452 1.5394,1.0885 0,0.999 -0.7337,1.0955 -1.5472,1.0955 h -0.2017 z m 0,-3.2635 h -0.6768 v 6.0765 h 0.8785 c 1.1523,0 2.224,-0.3068 2.224,-1.6765 0,-0.9348 -0.5883,-1.5958 -1.5235,-1.676 l 1.9342,-2.724 h -0.8302 l -1.8368,2.6675 h -0.1694" />
          <path
             id="path4604"
             style="fill:#404040;fill-opacity:1;fill-rule:nonzero;stroke:none"
             d="m 310.2119,86.9847 c 0,-1.3703 1.1117,-2.5145 2.4897,-2.5145 1.378,0 2.4903,1.1442 2.4903,2.5145 0,1.3777 -1.0963,2.514 -2.4903,2.514 -1.394,0 -2.4897,-1.1363 -2.4897,-2.514 m 5.6572,-0.0083 c 0,-1.7487 -1.435,-3.135 -3.1675,-3.135 -1.7325,0 -3.167,1.3863 -3.167,3.135 0,1.7405 1.4345,3.1508 3.167,3.1508 1.7325,0 3.1675,-1.4103 3.1675,-3.1508" />
          <path
             id="path4606"
             style="fill:#404040;fill-opacity:1;fill-rule:nonzero;stroke:none"
             d="m 320.6636,88.8379 c -0.2417,0.419 -0.5318,0.6608 -1.0473,0.6608 -0.5402,0 -1.0075,-0.3868 -1.0075,-0.943 1e-4,-0.5238 0.5401,-0.7655 0.9508,-0.9508 l 0.4033,-0.1775 c 0.7894,-0.346 1.4585,-0.7412 1.4585,-1.7085 0,-1.0635 -0.8545,-1.8775 -1.91,-1.8775 -0.9753,0 -1.7003,0.6288 -1.8938,1.5715 l 0.6613,0.1855 c 0.0882,-0.6205 0.5634,-1.1282 1.2167,-1.1282 0.6523,0 1.249,0.4995 1.249,1.1847 0,0.709 -0.556,0.9505 -1.12,1.2088 l -0.3712,0.161 c -0.709,0.3222 -1.3218,0.685 -1.3218,1.5552 0,0.943 0.798,1.5473 1.7008,1.5473 0.6772,0 1.2489,-0.3465 1.5712,-0.9428" />
          <path
             id="path4608"
             style="fill:#404040;fill-opacity:1;fill-rule:nonzero;stroke:none"
             d="m 324.2094,87.2342 h 0.4517 c 0.749,0 1.3857,0.2257 1.3857,1.096 0,0.9915 -0.7974,1.0637 -1.5874,1.0637 h -0.25 z m 0,-3.2878 h -0.6768 v 6.0763 h 0.999 c 0.524,0 1.0637,-0.0163 1.507,-0.3228 0.4515,-0.3142 0.6855,-0.846 0.6855,-1.386 0,-0.4912 -0.2018,-0.9912 -0.5807,-1.3052 -0.4106,-0.3385 -0.9348,-0.4033 -1.442,-0.4033 h -0.4918" />
          <path
             id="path4610"
             style="fill:#404040;fill-opacity:1;fill-rule:nonzero;stroke:none"
             d="m 330.2871,88.7332 -1.0395,-2.4338 h 2.0553 z m -1.3135,-3.0625 -0.7335,-1.7243 h -0.741 l 2.804,6.3663 2.7315,-6.3663 h -0.749 l -0.7172,1.7243" />
          <path
             id="path4612"
             style="fill:#404040;fill-opacity:1;fill-rule:nonzero;stroke:none"
             d="m 339.2096,88.6927 c -0.4835,0.4997 -1.1522,0.806 -1.8535,0.806 -1.354,0 -2.4502,-1.1763 -2.4502,-2.514 0,-1.338 1.104,-2.5145 2.4662,-2.5145 0.6853,0 1.354,0.322 1.8375,0.8057 v -0.8382 c -0.5235,-0.3785 -1.169,-0.5963 -1.8135,-0.5963 -1.7162,0 -3.167,1.3943 -3.167,3.119 0,1.7405 1.4263,3.1668 3.167,3.1668 0.6765,0 1.2735,-0.1935 1.8135,-0.5963" />
          <path
             id="path4614"
             style="fill:#404040;fill-opacity:1;fill-rule:nonzero;stroke:none"
             d="m 341.4741,90.0227 h 3.151 v -0.629 h -2.4747 v -1.805 h 2.402 v -0.6283 h -2.402 v -2.3857 h 2.4747 v -0.6285 h -3.151" />
          <path
             id="path4616"
             style="fill:#404040;fill-opacity:1;fill-rule:nonzero;stroke:none"
             d="m 350.8029,84.5747 h 2.4845 v -0.6285 h -3.1613 v 6.0765 h 0.6768" />
          <path
             id="path4618"
             style="fill:#404040;fill-opacity:1;fill-rule:nonzero;stroke:none"
             d="m 356.7261,88.7332 -1.0395,-2.4338 h 2.0547 z m -1.3135,-3.0625 -0.7335,-1.7243 h -0.741 l 2.804,6.3663 2.7325,-6.3663 h -0.75 l -0.7167,1.7243" />
          <path
             id="path4620"
             style="fill:#404040;fill-opacity:1;fill-rule:nonzero;stroke:none"
             d="m 361.4506,84.5747 h 0.6773 c 0.7572,0 1.5547,0.1855 1.5547,1.112 0,0.9427 -0.9025,1.0802 -1.6435,1.0802 h -0.5885 z m 0,2.7722 h 0.2578 c 0.7657,0 1.4185,0.0888 1.4185,1.0318 0,0.9185 -0.58,1.015 -1.4103,1.015 h -0.266 z m -0.6767,2.6758 h 0.999 c 1.104,0 2.0307,-0.4035 2.0307,-1.644 0,-0.4918 -0.185,-0.911 -0.5963,-1.1845 0.7258,-0.1775 1.1526,-0.8305 1.1526,-1.5558 0,-1.2087 -0.9753,-1.6922 -2.1758,-1.6922 h -1.4102" />
        </g>
      </g>
    </g>
  </g>
</svg>
