<?xml version="1.0" encoding="UTF-8" standalone="no"?>
<svg
   id="svg8"
   xml:space="preserve"
   style="enable-background:new 0 0 69.2 69.2;"
   viewBox="0 0 69.2 69.2"
   y="0px"
   x="0px"
   version="1.1"
   class="sign-logo"
   sodipodi:docname="telegram-1.svg"
   inkscape:version="1.1.2 (0a00cf5339, 2022-02-04)"
   xmlns:inkscape="http://www.inkscape.org/namespaces/inkscape"
   xmlns:sodipodi="http://sodipodi.sourceforge.net/DTD/sodipodi-0.dtd"
   xmlns="http://www.w3.org/2000/svg"
   xmlns:svg="http://www.w3.org/2000/svg"
   xmlns:rdf="http://www.w3.org/1999/02/22-rdf-syntax-ns#"
   xmlns:cc="http://creativecommons.org/ns#"
   xmlns:dc="http://purl.org/dc/elements/1.1/"><sodipodi:namedview
     id="namedview9"
     pagecolor="#ffffff"
     bordercolor="#666666"
     borderopacity="1.0"
     inkscape:pageshadow="2"
     inkscape:pageopacity="0.0"
     inkscape:pagecheckerboard="0"
     showgrid="false"
     inkscape:zoom="6.7925593"
     inkscape:cx="34.15502"
     inkscape:cy="33.71336"
     inkscape:window-width="1536"
     inkscape:window-height="836"
     inkscape:window-x="0"
     inkscape:window-y="0"
     inkscape:window-maximized="1"
     inkscape:current-layer="svg8" /><metadata
     id="metadata14"><rdf:RDF><cc:Work
         rdf:about=""><dc:format>image/svg+xml</dc:format><dc:type
           rdf:resource="http://purl.org/dc/dcmitype/StillImage" /><dc:title /></cc:Work></rdf:RDF></metadata><defs
     id="defs12" /><g
     id="Layer_3"><path
       id="path5"
       d="M14.4,34.3c0,0,17.3-7.1,23.3-9.6c2.3-1,10.1-4.2,10.1-4.2s3.6-1.4,3.3,2c-0.1,1.4-0.9,6.3-1.7,11.6               c-1.2,7.5-2.5,15.7-2.5,15.7s-0.2,2.3-1.9,2.7c-1.7,0.4-4.5-1.4-5-1.8c-0.4-0.3-7.5-4.8-10.1-7c-0.7-0.6-1.5-1.8,0.1-3.2               c3.6-3.3,7.9-7.4,10.5-10c1.2-1.2,2.4-4-2.6-0.6c-7.1,4.9-14.1,9.5-14.1,9.5s-1.6,1-4.6,0.1c-3-0.9-6.5-2.1-6.5-2.1               S10.3,35.9,14.4,34.3z"
       fill="#FFFFFF"
       class="st1" /></g></svg>
