<?xml version="1.0" encoding="UTF-8" standalone="no"?>
<!-- Creator: CorelDRAW -->

<svg
   xml:space="preserve"
   width="32px"
   height="32px"
   version="1.1"
   style="shape-rendering:geometricPrecision; text-rendering:geometricPrecision; image-rendering:optimizeQuality; fill-rule:evenodd; clip-rule:evenodd; enable-background:new 0 0 69.2 69.2;"
   viewBox="0 0 32 32"
   id="svg12"
   sodipodi:docname="researchgate.svg"
   inkscape:version="1.1.2 (0a00cf5339, 2022-02-04)"
   xmlns:inkscape="http://www.inkscape.org/namespaces/inkscape"
   xmlns:sodipodi="http://sodipodi.sourceforge.net/DTD/sodipodi-0.dtd"
   xmlns="http://www.w3.org/2000/svg"
   xmlns:svg="http://www.w3.org/2000/svg"><sodipodi:namedview
   id="namedview14"
   borderopacity="1.0"
   inkscape:pageshadow="2"
   inkscape:pageopacity="0.0"
   inkscape:pagecheckerboard="0"
   showgrid="false"
   inkscape:zoom="11.206054"
   inkscape:cx="4.3726363"
   inkscape:cy="20.435382"
   inkscape:window-width="1536"
   inkscape:window-height="828"
   inkscape:window-x="1920"
   inkscape:window-y="478"
   inkscape:window-maximized="1"
   inkscape:current-layer="Capa_x0020_1" />
 <g
   id="Capa_x0020_1"
   inkscape:label="Capa 1">
  <path
   id="path7"
   fill="currentColor"
   d="m 15.512777,-0.06054687 c -8.8499996,0 -16.01953083,7.18124997 -16.01953083,16.03124987 0,8.85 7.16953133,16.029297 16.01953083,16.029297 8.84,0 16.019531,-7.179297 16.019531,-16.029297 0,-8.8499999 -7.179531,-16.03124987 -16.019531,-16.03124987 z M 20.32723,6.8417969 c 0.885411,-0.037156 1.812657,0.2514062 2.285157,0.8476562 0.36,0.45 0.330078,0.5902344 -0.169922,0.7402344 -0.39,0.13 -0.39,0.1295313 -0.75,-0.2304687 -0.85,-0.8200001 -2.320078,-0.5189844 -2.580078,0.5410156 -0.13,0.47 -0.118282,2.4601566 0.01172,2.9101566 0.35,1.27 2.45836,1.27 2.81836,0 0.22,-0.81 0.171172,-0.869922 -0.798828,-0.919922 -0.47,-0.02 -0.470703,-0.02016 -0.470703,-0.410157 0,-0.3799995 0.0011,-0.3801557 1.121093,-0.4101558 1.45,-0.03 1.429375,-0.050234 1.359375,1.0097658 -0.09,1.33 -0.450312,1.969609 -1.320312,2.349609 -0.57,0.24 -1.349219,0.330703 -1.949219,0.220703 -1.55,-0.29 -2.060469,-1.239687 -1.980469,-3.6796871 0.04,-1.35 0.149922,-1.72125 0.669922,-2.28125 0.4025,-0.433125 1.065254,-0.6586011 1.753906,-0.6875 z m -9.458984,3.9492191 c 2.880117,-0.01559 3.580391,0.189296 4.525391,1.029296 1.13,1.01 1.288671,2.549844 0.388671,3.839844 -0.4,0.58 -1.198359,1.199688 -1.818359,1.429688 -0.29,0.11 -0.53125,0.229531 -0.53125,0.269531 0,0.12 0.920235,1.430859 1.490235,2.130859 1.519999,1.85 2.339453,2.569063 3.189453,2.789063 0.53,0.14 0.68125,0.290781 0.53125,0.550781 -0.16,0.27 -0.960391,0.330625 -1.900391,0.140625 -1.43,-0.28 -2.279219,-1.110078 -4.449219,-4.330078 -0.72,-1.08 -0.719922,-1.080859 -1.419922,-1.130859 -1.0299998,-0.07 -0.9499208,-0.250469 -0.9199208,2.019531 0.039999,2.58 0.01,2.521484 1.4999998,2.771484 0.39,0.06 0.419921,0.08836 0.419921,0.31836 0,0.26 -0.0011,0.26125 -2.6210932,0.28125 -2.46,0.02 -2.6199218,0.0094 -2.6699218,-0.140625 -0.1,-0.29 0.049844,-0.429297 0.5898437,-0.529297 0.61,-0.11 0.9297656,-0.36125 1.0097656,-0.78125 0.04,-0.16 0.05125,-2.318828 0.03125,-4.798828 -0.03,-5.21 0.028359,-4.901328 -0.9316406,-5.111329 -0.6,-0.13 -0.7889844,-0.269765 -0.7089844,-0.509765 0.06,-0.16 0.1899219,-0.16875 2.9199219,-0.21875 0.5074998,-0.01 0.9635548,-0.01731 1.3749998,-0.01953 z m 0.445312,0.949218 c -1.3299998,0 -1.3296088,5.47e-4 -1.3496088,2.310547 -0.02,1.27 -0.010469,2.369688 0.019531,2.429688 0.09,0.21 2.3396878,0.09938 2.9296878,-0.140625 2,-0.82 2.15,-3.568907 0.25,-4.378906 -0.49,-0.210001 -0.61961,-0.220704 -1.84961,-0.220704 z" />
 </g>
</svg>
