<?xml version="1.0" encoding="UTF-8" standalone="no"?>
<svg
   id="svg8"
   xml:space="preserve"
   style="enable-background:new 0 0 69.2 69.2;"
   viewBox="0 0 69.2 69.2"
   y="0px"
   x="0px"
   version="1.1"
   class="sign-logo"
   sodipodi:docname="telegram.svg"
   inkscape:version="1.1.2 (0a00cf5339, 2022-02-04)"
   xmlns:inkscape="http://www.inkscape.org/namespaces/inkscape"
   xmlns:sodipodi="http://sodipodi.sourceforge.net/DTD/sodipodi-0.dtd"
   xmlns="http://www.w3.org/2000/svg"
   xmlns:svg="http://www.w3.org/2000/svg">
    <g
   id="Layer_3"
   transform="matrix(1.768191,0,0,1.768191,-21.200771,-29.559347)">
    <path
   id="path5"
   d="m 14.4,34.3 c 0,0 17.3,-7.1 23.3,-9.6 2.3,-1 10.1,-4.2 10.1,-4.2 0,0 3.6,-1.4 3.3,2 -0.1,1.4 -0.9,6.3 -1.7,11.6 -1.2,7.5 -2.5,15.7 -2.5,15.7 0,0 -0.2,2.3 -1.9,2.7 -1.7,0.4 -4.5,-1.4 -5,-1.8 -0.4,-0.3 -7.5,-4.8 -10.1,-7 -0.7,-0.6 -1.5,-1.8 0.1,-3.2 3.6,-3.3 7.9,-7.4 10.5,-10 1.2,-1.2 2.4,-4 -2.6,-0.6 -7.1,4.9 -14.1,9.5 -14.1,9.5 0,0 -1.6,1 -4.6,0.1 -3,-0.9 -6.5,-2.1 -6.5,-2.1 0,0 -2.4,-1.5 1.7,-3.1 z"
   fill="currentColor"
   class="st1" /></g></svg>
